<svg width="24" height="24" viewBox="0 0 24 24" fill="none" xmlns="http://www.w3.org/2000/svg">
<path d="M13.9072 5.11133C14.1193 6.064 14.6207 6.87334 15.1865 7.56934C15.4894 7.94187 15.8424 8.31639 16.2246 8.69629L11.5 11.5762L5.13477 7.69727C4.84987 7.52811 4.57278 7.52397 4.30371 7.68555C4.03462 7.84717 3.90039 8.07475 3.90039 8.36719C3.90044 8.52082 3.93196 8.65522 3.99512 8.77051C4.05844 8.88594 4.15364 8.97456 4.28027 9.03613L11.001 13.123C11.0801 13.1692 11.1639 13.2044 11.251 13.2275C11.3379 13.2506 11.421 13.2617 11.5 13.2617C11.5792 13.2617 11.6629 13.2506 11.75 13.2275C11.837 13.2044 11.92 13.1692 11.999 13.123L17.418 9.82715L17.9639 10.3271C18.8042 11.0948 20.0146 11.2469 21 10.7646V18.042C20.9999 18.5498 20.8144 18.985 20.4424 19.3467C20.0704 19.7083 19.6229 19.8886 19.1006 19.8887H3.90039C3.37805 19.8887 2.93061 19.7082 2.55859 19.3467C2.18659 18.985 2.00008 18.5498 2 18.042V6.95801C2.00008 6.45016 2.18659 6.01499 2.55859 5.65332C2.93061 5.2918 3.37805 5.11133 3.90039 5.11133H13.9072ZM19.1006 5.11133C19.6229 5.11142 20.0704 5.29169 20.4424 5.65332C20.8144 6.01499 20.9999 6.45016 21 6.95801V8.43652C20.8087 8.61277 20.6105 8.79477 20.4053 8.98242L21 9.63184V9.63574L20.4053 8.98242C20.0624 9.29387 19.5359 9.29131 19.1943 8.97852C19.1224 8.91286 19.0517 8.8474 18.9814 8.7832C18.989 8.77128 18.9981 8.76041 19.0049 8.74805C19.0682 8.63269 19.1005 8.50559 19.1006 8.36719C19.1006 8.05932 18.9655 7.82776 18.6963 7.67383C18.4272 7.52004 18.1501 7.52799 17.8652 7.69727L17.833 7.71582C16.842 6.76464 16.1301 5.95184 15.8125 5.11133H19.1006Z" fill="white"/>
<path d="M20.4091 8.98206C20.0663 9.29368 19.5404 9.29078 19.1987 8.97786C17.0491 7.01679 15.63 5.72341 15.63 4.13608C15.63 2.8427 16.6401 1.82648 17.9257 1.82648C18.6519 1.82648 19.349 2.48769 19.8039 3.0252C20.2589 2.48769 20.9559 1.82648 21.6822 1.82648C22.9677 1.82648 23.9778 2.8427 23.9778 4.13608C23.9778 5.72341 22.5587 7.01679 20.4091 8.98206Z" fill="white"/>
</svg>
