<svg width="49" height="48" viewBox="0 0 49 48" fill="none" xmlns="http://www.w3.org/2000/svg">
<path fill-rule="evenodd" clip-rule="evenodd" d="M8.66164 32.0843C7.28289 29.68 6.5 26.9263 6.5 24C6.5 14.6112 14.5589 7 24.5 7C34.4411 7 42.5 14.6112 42.5 24C42.5 33.3888 34.4411 41 24.5 41C20.6388 41 17.0615 39.8518 14.1302 37.8971L7.90477 39.945C7.07182 40.219 6.28267 39.424 6.55465 38.5848L8.66164 32.0843Z" fill="#E5E9EE"/>
<path fill-rule="evenodd" clip-rule="evenodd" d="M18 24C18 25.3807 16.8807 26.5 15.5 26.5C14.1193 26.5 13 25.3807 13 24C13 22.6193 14.1193 21.5 15.5 21.5C16.8807 21.5 18 22.6193 18 24ZM27 24C27 25.3807 25.8807 26.5 24.5 26.5C23.1193 26.5 22 25.3807 22 24C22 22.6193 23.1193 21.5 24.5 21.5C25.8807 21.5 27 22.6193 27 24ZM33.5 26.5C34.8807 26.5 36 25.3807 36 24C36 22.6193 34.8807 21.5 33.5 21.5C32.1193 21.5 31 22.6193 31 24C31 25.3807 32.1193 26.5 33.5 26.5Z" fill="#555555"/>
</svg>
