<svg width="44" height="21" viewBox="0 0 44 21" fill="none" xmlns="http://www.w3.org/2000/svg">
<g clip-path="url(#clip0_3267_22299)">
<path d="M36.5082 17.7109L41.6163 12.6027C44.4328 9.78618 44.4328 5.20363 41.6163 2.38709C38.7998 -0.429442 34.2172 -0.429442 31.4007 2.38709L22.0086 11.7792L19.4714 9.24199C18.0768 7.84749 18.0768 5.57788 19.4714 4.18269L19.4659 4.17718C20.861 2.78818 23.1265 2.78955 24.5197 4.18269C24.7886 4.45168 25.1402 4.58583 25.4924 4.58583C25.8447 4.58583 26.1969 4.45168 26.4652 4.18269C27.0025 3.64538 27.0025 2.77442 26.4652 2.23712C23.9975 -0.23062 19.924 -0.163887 17.4563 2.30385C17.4136 2.3465 17.4921 2.25776 17.4563 2.30385C15.1186 4.78053 15.1021 8.76386 17.5258 11.1876L20.0513 13.7131L17.9998 15.7646C15.6394 18.125 11.7985 18.125 9.43805 15.7646L4.3299 10.6565C2.58659 8.91315 2.58659 6.07597 4.3299 4.33266C5.96244 2.70012 8.60699 2.58798 10.3675 4.06986C10.9468 4.55763 11.8425 4.51704 12.3344 3.9419C12.8284 3.36469 12.7609 2.49579 12.1837 2.00183C10.805 0.822657 9.04453 0.209679 7.22624 0.276412C5.39831 0.343144 3.67839 1.09303 2.38364 2.38709C-0.432894 5.20363 -0.432894 9.78618 2.38364 12.6027L7.49179 17.7109C9.20827 19.4273 11.4634 20.2859 13.7186 20.2859C15.9737 20.2859 18.2289 19.4273 19.9454 17.7109L21.9969 15.6593L24.0443 17.7067C24.4639 18.1264 24.951 18.5172 25.4271 18.8343C25.4243 18.8323 25.4298 18.8364 25.4271 18.8343C25.3982 18.8157 25.456 18.8536 25.4271 18.8343C26.8415 19.7555 28.5539 20.2901 30.2814 20.2901C32.6335 20.2901 34.8447 19.3744 36.5082 17.7109ZM34.5516 15.7605C32.5661 17.746 29.4806 18.0294 27.1621 16.6741C27.1539 16.6693 27.1704 16.6789 27.1621 16.6741C27.1264 16.6528 27.1979 16.6961 27.1621 16.6741C26.7741 16.4319 26.3311 16.0962 26.0002 15.7646L23.9569 13.7213L33.3463 4.33335C35.0896 2.59004 37.9267 2.59004 39.6701 4.33335C41.4134 6.07666 41.4134 8.91383 39.6701 10.6571L34.5516 15.7605Z" fill="#E3E3E3"/>
</g>
<defs>
<clipPath id="clip0_3267_22299">
<rect width="44" height="20.642" fill="white"/>
</clipPath>
</defs>
</svg>
